<svg width="110" height="43" viewBox="0 0 302 43" fill="none" xmlns="http://www.w3.org/2000/svg">
<path d="M13.0352 22.1719C13.0352 23.9818 12.8008 25.8242 12.332 27.6992C11.8763 29.5612 11.2318 31.3646 10.3984 33.1094C9.57812 34.8672 8.58854 36.5078 7.42969 38.0312C6.27083 39.5547 4.99479 40.8828 3.60156 42.0156L0.59375 40.1992C1.375 39.1315 2.05859 37.9206 2.64453 36.5664C3.23047 35.2122 3.71875 33.806 4.10938 32.3477C4.5 30.8893 4.79297 29.4245 4.98828 27.9531C5.18359 26.4818 5.28125 25.082 5.28125 23.7539V2.875H13.0352V22.1719ZM41.5703 31H34.9688V28.3047C34.1875 29.3724 33.2435 30.1667 32.1367 30.6875C31.043 31.1953 29.8385 31.4492 28.5234 31.4492C26.8047 31.4492 25.2682 31.1432 23.9141 30.5312C22.5599 29.9193 21.4141 29.0859 20.4766 28.0312C19.5391 26.9635 18.8229 25.7135 18.3281 24.2812C17.8333 22.849 17.5859 21.3125 17.5859 19.6719C17.5859 18.0312 17.8333 16.4948 18.3281 15.0625C18.8229 13.6302 19.5391 12.3867 20.4766 11.332C21.4141 10.2643 22.5599 9.42448 23.9141 8.8125C25.2682 8.20052 26.8047 7.89453 28.5234 7.89453C29.3958 7.89453 30.2227 8.02474 31.0039 8.28516C31.7982 8.54557 32.5208 8.91667 33.1719 9.39844C33.8359 9.86719 34.4154 10.4401 34.9102 11.1172C35.418 11.7812 35.8151 12.5234 36.1016 13.3438L39.0312 8.44141H41.5703V31ZM34.9297 19.6719C34.9297 19.0859 34.8971 18.4674 34.832 17.8164C34.7799 17.1654 34.6823 16.5208 34.5391 15.8828C34.3958 15.2448 34.194 14.6393 33.9336 14.0664C33.6862 13.4805 33.3607 12.9661 32.957 12.5234C32.5664 12.0677 32.0911 11.7096 31.5312 11.4492C30.9714 11.1888 30.3203 11.0586 29.5781 11.0586C28.8359 11.0586 28.1914 11.1953 27.6445 11.4688C27.0977 11.7292 26.6289 12.0872 26.2383 12.543C25.8477 12.9857 25.5221 13.5 25.2617 14.0859C25.0143 14.6719 24.819 15.2839 24.6758 15.9219C24.5326 16.5599 24.4284 17.2044 24.3633 17.8555C24.3112 18.4935 24.2852 19.099 24.2852 19.6719C24.2852 20.2448 24.3112 20.8568 24.3633 21.5078C24.4284 22.1589 24.5326 22.8034 24.6758 23.4414C24.819 24.0794 25.0143 24.6914 25.2617 25.2773C25.5221 25.8633 25.8477 26.3841 26.2383 26.8398C26.6289 27.2826 27.0977 27.6406 27.6445 27.9141C28.1914 28.1745 28.8359 28.3047 29.5781 28.3047C30.2552 28.3047 30.8542 28.168 31.375 27.8945C31.9089 27.6081 32.3711 27.2305 32.7617 26.7617C33.1654 26.293 33.5039 25.7591 33.7773 25.1602C34.0508 24.5612 34.2721 23.9427 34.4414 23.3047C34.6107 22.6667 34.7344 22.0352 34.8125 21.4102C34.8906 20.7721 34.9297 20.1927 34.9297 19.6719ZM58.6992 31H52.7617L44.5586 8.44141H51.1602L57.1758 26.4102L63.0156 8.44141H67.5859L58.6992 31ZM92.7031 31H86.1016V28.3047C85.3203 29.3724 84.3763 30.1667 83.2695 30.6875C82.1758 31.1953 80.9714 31.4492 79.6562 31.4492C77.9375 31.4492 76.401 31.1432 75.0469 30.5312C73.6927 29.9193 72.5469 29.0859 71.6094 28.0312C70.6719 26.9635 69.9557 25.7135 69.4609 24.2812C68.9661 22.849 68.7188 21.3125 68.7188 19.6719C68.7188 18.0312 68.9661 16.4948 69.4609 15.0625C69.9557 13.6302 70.6719 12.3867 71.6094 11.332C72.5469 10.2643 73.6927 9.42448 75.0469 8.8125C76.401 8.20052 77.9375 7.89453 79.6562 7.89453C80.5286 7.89453 81.3555 8.02474 82.1367 8.28516C82.931 8.54557 83.6536 8.91667 84.3047 9.39844C84.9688 9.86719 85.5482 10.4401 86.043 11.1172C86.5508 11.7812 86.9479 12.5234 87.2344 13.3438L90.1641 8.44141H92.7031V31ZM86.0625 19.6719C86.0625 19.0859 86.0299 18.4674 85.9648 17.8164C85.9128 17.1654 85.8151 16.5208 85.6719 15.8828C85.5286 15.2448 85.3268 14.6393 85.0664 14.0664C84.819 13.4805 84.4935 12.9661 84.0898 12.5234C83.6992 12.0677 83.224 11.7096 82.6641 11.4492C82.1042 11.1888 81.4531 11.0586 80.7109 11.0586C79.9688 11.0586 79.3242 11.1953 78.7773 11.4688C78.2305 11.7292 77.7617 12.0872 77.3711 12.543C76.9805 12.9857 76.6549 13.5 76.3945 14.0859C76.1471 14.6719 75.9518 15.2839 75.8086 15.9219C75.6654 16.5599 75.5612 17.2044 75.4961 17.8555C75.444 18.4935 75.418 19.099 75.418 19.6719C75.418 20.2448 75.444 20.8568 75.4961 21.5078C75.5612 22.1589 75.6654 22.8034 75.8086 23.4414C75.9518 24.0794 76.1471 24.6914 76.3945 25.2773C76.6549 25.8633 76.9805 26.3841 77.3711 26.8398C77.7617 27.2826 78.2305 27.6406 78.7773 27.9141C79.3242 28.1745 79.9688 28.3047 80.7109 28.3047C81.388 28.3047 81.987 28.168 82.5078 27.8945C83.0417 27.6081 83.5039 27.2305 83.8945 26.7617C84.2982 26.293 84.6367 25.7591 84.9102 25.1602C85.1836 24.5612 85.4049 23.9427 85.5742 23.3047C85.7435 22.6667 85.8672 22.0352 85.9453 21.4102C86.0234 20.7721 86.0625 20.1927 86.0625 19.6719ZM135.535 9.84766L132.195 11.2539C131.935 10.4076 131.583 9.63281 131.141 8.92969C130.711 8.22656 130.19 7.6276 129.578 7.13281C128.979 6.625 128.296 6.23438 127.527 5.96094C126.759 5.67448 125.919 5.53125 125.008 5.53125C124.031 5.53125 123.133 5.69401 122.312 6.01953C121.505 6.33203 120.776 6.76823 120.125 7.32812C119.487 7.88802 118.927 8.53906 118.445 9.28125C117.964 10.0234 117.56 10.8177 117.234 11.6641C116.909 12.4974 116.668 13.3633 116.512 14.2617C116.355 15.1602 116.277 16.0391 116.277 16.8984C116.277 18.2656 116.434 19.6263 116.746 20.9805C117.072 22.3346 117.579 23.5521 118.27 24.6328C118.973 25.7135 119.878 26.5924 120.984 27.2695C122.091 27.9336 123.432 28.2656 125.008 28.2656C125.841 28.2656 126.629 28.1289 127.371 27.8555C128.113 27.569 128.784 27.1849 129.383 26.7031C129.995 26.2083 130.529 25.6289 130.984 24.9648C131.44 24.3008 131.805 23.5846 132.078 22.8164L135.457 24.1641C134.962 25.401 134.285 26.4883 133.426 27.4258C132.566 28.3503 131.583 29.1185 130.477 29.7305C129.383 30.3424 128.204 30.7982 126.941 31.0977C125.691 31.4102 124.428 31.5664 123.152 31.5664C121.772 31.5664 120.444 31.3971 119.168 31.0586C117.905 30.7201 116.727 30.2383 115.633 29.6133C114.539 28.9883 113.543 28.2331 112.645 27.3477C111.759 26.4622 110.997 25.4792 110.359 24.3984C109.734 23.3177 109.246 22.1458 108.895 20.8828C108.556 19.6068 108.387 18.2786 108.387 16.8984C108.387 15.5182 108.556 14.1966 108.895 12.9336C109.246 11.6576 109.734 10.4792 110.359 9.39844C110.997 8.30469 111.759 7.3151 112.645 6.42969C113.543 5.54427 114.539 4.78906 115.633 4.16406C116.727 3.53906 117.905 3.05729 119.168 2.71875C120.444 2.38021 121.772 2.21094 123.152 2.21094C124.48 2.21094 125.776 2.36719 127.039 2.67969C128.315 2.99219 129.5 3.46745 130.594 4.10547C131.688 4.73047 132.658 5.52474 133.504 6.48828C134.363 7.4388 135.04 8.55859 135.535 9.84766ZM162.352 31H155.75V28.3047C154.969 29.3724 154.025 30.1667 152.918 30.6875C151.824 31.1953 150.62 31.4492 149.305 31.4492C147.586 31.4492 146.049 31.1432 144.695 30.5312C143.341 29.9193 142.195 29.0859 141.258 28.0312C140.32 26.9635 139.604 25.7135 139.109 24.2812C138.615 22.849 138.367 21.3125 138.367 19.6719C138.367 18.0312 138.615 16.4948 139.109 15.0625C139.604 13.6302 140.32 12.3867 141.258 11.332C142.195 10.2643 143.341 9.42448 144.695 8.8125C146.049 8.20052 147.586 7.89453 149.305 7.89453C150.177 7.89453 151.004 8.02474 151.785 8.28516C152.579 8.54557 153.302 8.91667 153.953 9.39844C154.617 9.86719 155.197 10.4401 155.691 11.1172C156.199 11.7812 156.596 12.5234 156.883 13.3438L159.812 8.44141H162.352V31ZM155.711 19.6719C155.711 19.0859 155.678 18.4674 155.613 17.8164C155.561 17.1654 155.464 16.5208 155.32 15.8828C155.177 15.2448 154.975 14.6393 154.715 14.0664C154.467 13.4805 154.142 12.9661 153.738 12.5234C153.348 12.0677 152.872 11.7096 152.312 11.4492C151.753 11.1888 151.102 11.0586 150.359 11.0586C149.617 11.0586 148.973 11.1953 148.426 11.4688C147.879 11.7292 147.41 12.0872 147.02 12.543C146.629 12.9857 146.303 13.5 146.043 14.0859C145.796 14.6719 145.6 15.2839 145.457 15.9219C145.314 16.5599 145.21 17.2044 145.145 17.8555C145.092 18.4935 145.066 19.099 145.066 19.6719C145.066 20.2448 145.092 20.8568 145.145 21.5078C145.21 22.1589 145.314 22.8034 145.457 23.4414C145.6 24.0794 145.796 24.6914 146.043 25.2773C146.303 25.8633 146.629 26.3841 147.02 26.8398C147.41 27.2826 147.879 27.6406 148.426 27.9141C148.973 28.1745 149.617 28.3047 150.359 28.3047C151.036 28.3047 151.635 28.168 152.156 27.8945C152.69 27.6081 153.152 27.2305 153.543 26.7617C153.947 26.293 154.285 25.7591 154.559 25.1602C154.832 24.5612 155.053 23.9427 155.223 23.3047C155.392 22.6667 155.516 22.0352 155.594 21.4102C155.672 20.7721 155.711 20.1927 155.711 19.6719ZM187.059 10.4336L183.348 16.5859C183.191 16.0651 182.99 15.4792 182.742 14.8281C182.495 14.1771 182.189 13.5716 181.824 13.0117C181.46 12.4388 181.023 11.9635 180.516 11.5859C180.008 11.1953 179.422 11 178.758 11C178.146 11 177.612 11.1562 177.156 11.4688C176.714 11.7812 176.336 12.1914 176.023 12.6992C175.711 13.194 175.451 13.7604 175.242 14.3984C175.047 15.0234 174.891 15.6615 174.773 16.3125C174.669 16.9505 174.598 17.569 174.559 18.168C174.52 18.7539 174.5 19.2617 174.5 19.6914V31H167.879V8.44141H170.418L173.094 13.6953C173.458 12.849 173.875 12.0742 174.344 11.3711C174.812 10.6549 175.353 10.043 175.965 9.53516C176.577 9.01432 177.267 8.61068 178.035 8.32422C178.816 8.03776 179.695 7.89453 180.672 7.89453C181.18 7.89453 181.746 7.9401 182.371 8.03125C182.996 8.10938 183.608 8.2526 184.207 8.46094C184.806 8.65625 185.359 8.91667 185.867 9.24219C186.375 9.56771 186.772 9.96484 187.059 10.4336ZM228.367 17.543V17.9141C228.341 19.0078 228.224 20.1406 228.016 21.3125C227.82 22.4844 227.54 23.6562 227.176 24.8281C226.811 26 226.375 27.1589 225.867 28.3047C225.359 29.4505 224.786 30.5443 224.148 31.5859C223.523 32.6406 222.846 33.6237 222.117 34.5352C221.388 35.4596 220.62 36.2734 219.812 36.9766L216.902 35.2969C217.358 34.5286 217.768 33.6888 218.133 32.7773C218.51 31.8789 218.849 30.9349 219.148 29.9453C219.448 28.9557 219.702 27.9401 219.91 26.8984C220.132 25.8568 220.314 24.8216 220.457 23.793C220.6 22.7643 220.704 21.7552 220.77 20.7656C220.848 19.763 220.887 18.8125 220.887 17.9141C220.887 17.2109 220.88 16.4167 220.867 15.5312C220.867 14.6328 220.815 13.7214 220.711 12.7969C220.62 11.8724 220.464 10.974 220.242 10.1016C220.021 9.21615 219.689 8.42839 219.246 7.73828C218.816 7.04818 218.257 6.49479 217.566 6.07812C216.889 5.66146 216.043 5.45312 215.027 5.45312C214.129 5.45312 213.354 5.60938 212.703 5.92188C212.065 6.22135 211.518 6.63151 211.062 7.15234C210.62 7.66016 210.262 8.2526 209.988 8.92969C209.728 9.60677 209.52 10.3229 209.363 11.0781C209.22 11.8203 209.122 12.5755 209.07 13.3438C209.031 14.099 209.012 14.8151 209.012 15.4922V20.9414H217.43V24.1641H209.012V31H201.258V16.7031C201.258 14.6589 201.583 12.7578 202.234 11C202.885 9.24219 203.803 7.71875 204.988 6.42969C206.186 5.1276 207.618 4.11198 209.285 3.38281C210.965 2.64062 212.833 2.26953 214.891 2.26953C216.284 2.26953 217.586 2.47135 218.797 2.875C220.021 3.26562 221.134 3.8125 222.137 4.51562C223.139 5.20573 224.031 6.03255 224.812 6.99609C225.607 7.94661 226.264 8.98828 226.785 10.1211C227.319 11.2539 227.723 12.4518 227.996 13.7148C228.27 14.9779 228.393 16.2539 228.367 17.543ZM231.648 21.3516C231.648 20.3229 231.733 19.2552 231.902 18.1484C232.085 17.0417 232.339 15.9349 232.664 14.8281C233.003 13.7214 233.406 12.6276 233.875 11.5469C234.344 10.4661 234.871 9.43099 235.457 8.44141H240.281C239.956 9.41797 239.663 10.4401 239.402 11.5078C239.155 12.5625 238.94 13.6237 238.758 14.6914C238.589 15.7461 238.452 16.7812 238.348 17.7969C238.257 18.8125 238.211 19.7565 238.211 20.6289C238.211 21.1367 238.23 21.6836 238.27 22.2695C238.322 22.8424 238.406 23.4219 238.523 24.0078C238.641 24.5807 238.803 25.1341 239.012 25.668C239.233 26.2018 239.513 26.6771 239.852 27.0938C240.19 27.4974 240.6 27.8229 241.082 28.0703C241.577 28.3047 242.156 28.4219 242.82 28.4219C243.471 28.4219 244.051 28.2786 244.559 27.9922C245.079 27.6927 245.535 27.3086 245.926 26.8398C246.316 26.3581 246.648 25.8112 246.922 25.1992C247.195 24.5872 247.417 23.9622 247.586 23.3242C247.768 22.6732 247.898 22.0417 247.977 21.4297C248.068 20.8047 248.113 20.2448 248.113 19.75V8.44141H254.715V31H252.176L249.148 25.7461C248.771 26.6185 248.309 27.4128 247.762 28.1289C247.228 28.832 246.616 29.4375 245.926 29.9453C245.236 30.4531 244.467 30.8438 243.621 31.1172C242.788 31.3906 241.883 31.5273 240.906 31.5273C239.344 31.5273 237.983 31.2734 236.824 30.7656C235.665 30.2578 234.702 29.5547 233.934 28.6562C233.165 27.7578 232.592 26.6901 232.215 25.4531C231.837 24.2031 231.648 22.8359 231.648 21.3516ZM268.719 31H262.098V11.0586H257.996V8.44141H262.098V0.140625H268.719V8.44141H275.555V11.0586H268.719V31ZM301.434 19.6719C301.434 20.8438 301.277 21.944 300.965 22.9727C300.652 24.0013 300.216 24.9518 299.656 25.8242C299.109 26.6966 298.445 27.4844 297.664 28.1875C296.883 28.8776 296.023 29.4635 295.086 29.9453C294.161 30.4271 293.165 30.7982 292.098 31.0586C291.043 31.319 289.956 31.4492 288.836 31.4492C287.716 31.4492 286.629 31.319 285.574 31.0586C284.52 30.7982 283.523 30.4271 282.586 29.9453C281.661 29.4635 280.809 28.8776 280.027 28.1875C279.246 27.4844 278.576 26.6966 278.016 25.8242C277.469 24.9518 277.039 24.0013 276.727 22.9727C276.414 21.931 276.258 20.8307 276.258 19.6719C276.258 18.513 276.414 17.4193 276.727 16.3906C277.039 15.349 277.469 14.3919 278.016 13.5195C278.576 12.6471 279.246 11.8659 280.027 11.1758C280.809 10.4727 281.661 9.88021 282.586 9.39844C283.523 8.91667 284.52 8.54557 285.574 8.28516C286.629 8.02474 287.716 7.89453 288.836 7.89453C289.956 7.89453 291.043 8.02474 292.098 8.28516C293.165 8.54557 294.161 8.91667 295.086 9.39844C296.023 9.88021 296.883 10.4727 297.664 11.1758C298.445 11.8659 299.109 12.6471 299.656 13.5195C300.216 14.3919 300.652 15.349 300.965 16.3906C301.277 17.4193 301.434 18.513 301.434 19.6719ZM294.715 19.6719C294.715 19.0469 294.676 18.3893 294.598 17.6992C294.533 16.9961 294.415 16.3125 294.246 15.6484C294.077 14.9714 293.842 14.3268 293.543 13.7148C293.257 13.0898 292.898 12.5495 292.469 12.0938C292.039 11.625 291.525 11.2539 290.926 10.9805C290.327 10.694 289.63 10.5508 288.836 10.5508C288.081 10.5508 287.41 10.694 286.824 10.9805C286.238 11.2669 285.724 11.651 285.281 12.1328C284.852 12.6016 284.487 13.1484 284.188 13.7734C283.901 14.3984 283.667 15.0495 283.484 15.7266C283.302 16.3906 283.172 17.0677 283.094 17.7578C283.016 18.4349 282.977 19.0729 282.977 19.6719C282.977 20.2708 283.016 20.9154 283.094 21.6055C283.172 22.2826 283.302 22.9596 283.484 23.6367C283.667 24.3138 283.901 24.9648 284.188 25.5898C284.487 26.2018 284.852 26.7487 285.281 27.2305C285.724 27.6992 286.238 28.0768 286.824 28.3633C287.41 28.6497 288.081 28.793 288.836 28.793C289.617 28.793 290.307 28.6562 290.906 28.3828C291.505 28.0964 292.02 27.7188 292.449 27.25C292.892 26.7812 293.257 26.2409 293.543 25.6289C293.829 25.0169 294.057 24.3724 294.227 23.6953C294.409 23.0182 294.533 22.3346 294.598 21.6445C294.676 20.9544 294.715 20.2969 294.715 19.6719Z" fill="#A50A0A"/>
</svg>
